<?xml version="1.0" encoding="UTF-8" standalone="no"?>
<!DOCTYPE svg PUBLIC "-//W3C//DTD SVG 1.1//EN"
 "http://www.w3.org/Graphics/SVG/1.1/DTD/svg11.dtd">
<!-- Generated by graphviz version 14.1.2 (20260124.0452)
 -->
<!-- Title: LogicFlow Pages: 1 -->
<svg width="354pt" height="594pt"
 viewBox="0.00 0.00 354.00 594.00" xmlns="http://www.w3.org/2000/svg" xmlns:xlink="http://www.w3.org/1999/xlink">
<g id="graph0" class="graph" transform="scale(1 1) rotate(0) translate(4 589.69)">
<title>LogicFlow</title>
<polygon fill="white" stroke="none" points="-4,4 -4,-589.69 350,-589.69 350,4 -4,4"/>
<!-- block_1 -->
<g id="node1" class="node">
<title>block_1</title>
<polygon fill="white" stroke="black" points="230.5,-585.69 115.5,-585.69 115.5,-549.69 230.5,-549.69 230.5,-585.69"/>
<text xml:space="preserve" text-anchor="middle" x="173" y="-562.64" font-family="Courier New" font-size="14.00">def __init__</text>
</g>
<!-- block_3 -->
<g id="node3" class="node">
<title>block_3</title>
<polygon fill="white" stroke="black" points="271.75,-513.69 74.25,-513.69 74.25,-477.69 271.75,-477.69 271.75,-513.69"/>
<text xml:space="preserve" text-anchor="middle" x="173" y="-490.64" font-family="Courier New" font-size="14.00">self.code = code_bytes</text>
</g>
<!-- block_1&#45;&gt;block_3 -->
<g id="edge1" class="edge">
<title>block_1&#45;&gt;block_3</title>
<path fill="none" stroke="black" d="M173,-549.53C173,-549.53 173,-525.62 173,-525.62"/>
<polygon fill="black" stroke="black" points="176.5,-525.62 173,-515.62 169.5,-525.62 176.5,-525.62"/>
</g>
<!-- exit_2 -->
<g id="node2" class="node">
<title>exit_2</title>
<ellipse fill="#f8d7da" stroke="#dc3545" cx="173" cy="-76.85" rx="72.85" ry="72.85"/>
<ellipse fill="none" stroke="#dc3545" cx="173" cy="-76.85" rx="76.85" ry="76.85"/>
<text xml:space="preserve" text-anchor="middle" x="173" y="-71.8" font-family="Courier New" font-size="14.00">return/exit</text>
</g>
<!-- block_4 -->
<g id="node4" class="node">
<title>block_4</title>
<polygon fill="white" stroke="black" points="346,-441.69 0,-441.69 0,-405.69 346,-405.69 346,-441.69"/>
<text xml:space="preserve" text-anchor="middle" x="173" y="-418.64" font-family="Courier New" font-size="14.00">self.graph = UniversalLogicGraph(&quot;pyt...</text>
</g>
<!-- block_3&#45;&gt;block_4 -->
<g id="edge2" class="edge">
<title>block_3&#45;&gt;block_4</title>
<path fill="none" stroke="black" d="M173,-477.53C173,-477.53 173,-453.62 173,-453.62"/>
<polygon fill="black" stroke="black" points="176.5,-453.62 173,-443.62 169.5,-453.62 176.5,-453.62"/>
</g>
<!-- block_5 -->
<g id="node5" class="node">
<title>block_5</title>
<polygon fill="white" stroke="black" points="263.5,-369.69 82.5,-369.69 82.5,-333.69 263.5,-333.69 263.5,-369.69"/>
<text xml:space="preserve" text-anchor="middle" x="173" y="-346.64" font-family="Courier New" font-size="14.00">self.loop_stack = []</text>
</g>
<!-- block_4&#45;&gt;block_5 -->
<g id="edge3" class="edge">
<title>block_4&#45;&gt;block_5</title>
<path fill="none" stroke="black" d="M173,-405.53C173,-405.53 173,-381.62 173,-381.62"/>
<polygon fill="black" stroke="black" points="176.5,-381.62 173,-371.62 169.5,-381.62 176.5,-381.62"/>
</g>
<!-- block_6 -->
<g id="node6" class="node">
<title>block_6</title>
<polygon fill="white" stroke="black" points="259.38,-297.69 86.62,-297.69 86.62,-261.69 259.38,-261.69 259.38,-297.69"/>
<text xml:space="preserve" text-anchor="middle" x="173" y="-274.64" font-family="Courier New" font-size="14.00">self.fn_exit = None</text>
</g>
<!-- block_5&#45;&gt;block_6 -->
<g id="edge4" class="edge">
<title>block_5&#45;&gt;block_6</title>
<path fill="none" stroke="black" d="M173,-333.53C173,-333.53 173,-309.62 173,-309.62"/>
<polygon fill="black" stroke="black" points="176.5,-309.62 173,-299.62 169.5,-309.62 176.5,-309.62"/>
</g>
<!-- block_7 -->
<g id="node7" class="node">
<title>block_7</title>
<polygon fill="white" stroke="black" points="284.12,-225.69 61.88,-225.69 61.88,-189.69 284.12,-189.69 284.12,-225.69"/>
<text xml:space="preserve" text-anchor="middle" x="173" y="-202.64" font-family="Courier New" font-size="14.00">self.config_loader = None</text>
</g>
<!-- block_6&#45;&gt;block_7 -->
<g id="edge5" class="edge">
<title>block_6&#45;&gt;block_7</title>
<path fill="none" stroke="black" d="M173,-261.53C173,-261.53 173,-237.62 173,-237.62"/>
<polygon fill="black" stroke="black" points="176.5,-237.62 173,-227.62 169.5,-237.62 176.5,-237.62"/>
</g>
<!-- block_7&#45;&gt;exit_2 -->
<g id="edge6" class="edge">
<title>block_7&#45;&gt;exit_2</title>
<path fill="none" stroke="black" d="M173,-189.22C173,-189.22 173,-165.66 173,-165.66"/>
<polygon fill="black" stroke="black" points="176.5,-165.66 173,-155.66 169.5,-165.66 176.5,-165.66"/>
</g>
</g>
</svg>
